<svg xmlns="http://www.w3.org/2000/svg" viewBox="0 0 64 64">
  <defs>
    <linearGradient id="grad" x1="0%" y1="0%" x2="100%" y2="100%">
      <stop offset="0%" stop-color="#ff8ec7" />
      <stop offset="100%" stop-color="#ffb66d" />
    </linearGradient>
  </defs>
  <rect width="64" height="64" rx="12" fill="url(#grad)" />
  <path fill="#fff" d="M22.2 46.5c-4.8-3.7-7.2-9.2-7.2-16.6 0-7.2 2.5-12.7 7.6-16.6 3.5-2.6 7.5-3.9 11.9-3.9 4.4 0 8.2 1.3 11.4 3.9l-4 5.5c-2.2-1.7-4.7-2.6-7.5-2.6-3.4 0-6.1 1-8.1 3-2 2-3 4.8-3 8.4 0 3.7 1 6.6 3 8.6 2 2 4.7 3 8.2 3 2.7 0 5.2-.9 7.5-2.6l4 5.5c-3.3 2.6-7.1 3.9-11.5 3.9-4.6 0-8.6-1.3-12.3-4.5Z" />
</svg>
